<?xml version="1.0" encoding="UTF-8"?>
<svg id="Layer_1" data-name="Layer 1" xmlns="http://www.w3.org/2000/svg" viewBox="0 0 512.96 160.48">
  <defs>
    <style>
      .cls-1 {
        fill: #0284c7;
      }
    </style>
  </defs>
  <g>
    <path class="cls-1" d="m482.43,82.55c1.01-5.99,1.21-12.7-1.29-17.07-4.12-7.18-11.79-8.18-17.04-5.71s-9.57,8.12-10.76,8.87-.4-2.69-2.43-6.31c-2.03-3.62-7.41-8.85-17.18-8.26-9.76.59-16.59,6.24-19.24,8.65-2.65,2.41-1.88.85-2.41-2.76-.53-3.62-6.95-6.97-15.09-4.76-9.56,2.59-7.9,8.59-9.44,23-.09.81-.21,1.75-.35,2.79-.07.53-.19,1.05-.32,1.57h11.12c-.58,2.18-1.7,4.2-3.33,5.78-2.58,2.51-5.4,4.2-7.11,4.36-2.96.26-5.21-.79-3.79-6.26.29-1.12.77-2.44,1.32-3.87h-10.64c-.11.36-.23.72-.34,1.09-1.32,4.5-1.19,15.04,8.07,16.81,4.75.9,8.73,0,11.48-1.09.77-.31,1.57.35,1.42,1.16-1.5,8.26-2.87,15.32-2.87,15.32-.96,5,.88,7.88,6.88,8.06,6,.18,9.94-1.76,11.65-4.18s4.62-14.5,10.44-29.94c1.04-2.75,2.07-5.14,3.11-7.22h-11.12c4.77-9.62,9.45-12.6,13.63-13.07,3.75-.42,7.41,2.65,6.47,9.82-.13.99-.28,2.09-.44,3.25h11.47c-1.02,7.22-2.69,17.31-4.97,26.28-2.65,10.41-.12,12.65,2,14.34,2.12,1.69,11.35,2.96,14.09-3.93s6.44-24.18,11.26-35.59c.16-.39.33-.74.5-1.11h-11.47c4.74-10.44,10.62-12.75,14.75-11.75,3.64.89,3.79,5.92,2.88,11.75h9.1Z"/>
    <path class="cls-1" d="m374.26,82.55c2.11-5.53,5.29-12.85,3.01-18.32-2.87-6.88-11.87-7.76-18.62-4.63-6.75,3.13-8.62,7.41-9.85,7.12-.61-.15-.3-1.4-.24-6.06.06-4.41-3.33-8.09-10.03-6.79-6.85,1.32-10.15,9.71-13.42,23.03-.41,1.67-.82,3.43-1.24,5.25-.03.14-.1.27-.14.4h11.34c-.37,1.07-1.15,1.94-2.21,2.39-.92.39-1.98.67-3.64.86-4.16.47-8.19-.23-10.44-3.26h-11.65c-.64-.87-1.15-1.91-1.47-3.18-1.41-5.74-2.35-18.24-15.27-24.09-13.73-6.22-35.67-2.62-46.67,17.91-1.69,3.15-2.96,6.29-3.84,9.36h11.65c-3.68,12.78-.78,24.64,5.95,33.26,8.18,10.44,26.47,15.14,41.3,6.44,13.53-7.94,16.32-20.74,17.47-24.53,1.15-3.79,1.78-2.6,7.32-2,2.95.32,5.43.19,7.34-.07.7-.1,1.28.54,1.14,1.24-1.7,8.28-3.19,15.88-4.06,19.72-1.59,6.97,1.76,8.21,7.94,7.32,6.18-.88,9.38-4.09,9.38-4.09,2.65-2.24,2.94-4.71,5.65-16.18,2.3-9.74,3.67-15.65,6.76-21.11h-11.34c.55-.97,1.14-1.92,1.81-2.88,4.46-6.35,14.74-8.82,16.76-5.78,1.28,1.92-.08,4.74-1.34,8.66h10.64Zm-82.67,26.64c-8.05,5-16.63,2.47-19.93-3-3.05-5.06-4.12-14.3-.39-23.64h-11.65c.3-.75.62-1.5.98-2.24,4.88-10.06,12.76-13.06,16.23-13.53,3.48-.47,4.95.12,5.42,2.23,0,0,.88,5.54,4.11,11.3.5.89.95,1.62,1.36,2.24h11.65c2.24,3.45,3.17,3.54,3.17,5.94.02,3.41-2.91,15.7-10.95,20.7Z"/>
    <path class="cls-1" d="m490.25,110.66c-2.9-3.17-.94-12,1.18-18.24.83-2.44,1.82-6.01,2.47-9.87h-9.1c-.14.92-.31,1.86-.5,2.81-.96,4.85-3.88,15.66-4.81,20.91-2.65,11.74,2.5,16.88,9.09,16.9,2.29,0,4.3-.62,6-1.54v-8.46c-1.54-.45-3.1-1.18-4.32-2.52Z"/>
    <path class="cls-1" d="m233.14,67.37h-20.16c-.92,0-1.61-.85-1.42-1.76.73-3.48,1.46-6.91,2.17-10.24,1.78-8.3,2.77-13.7,3.53-17.23h11.2c1.32-6.16,1.95-6.62,4.82-6.77,4.53-.24,18.29,0,31.71,0s16.85-.36,20.64-4.94c1.32-1.59,2.42-3.18,3.28-4.66h22.47c1.64-2.8,2.44-5.23,2.19-6.55-.48-2.56-4.06.69-32.03.69-25.5,0-27.88-.78-43.85-.78s-21.87.94-27.35,4.41c-1.15.73-2.14,1.48-2.98,2.23h-22.47c-3.65,3.24-4.49,6.32-3.2,6.54,1.59.26,7.03-1,15.06-1.71,8.03-.7,12.03.62,12.82,2.21.53,1.06.35,3.58-.79,9.33h-11.2c-.57,2.89-1.38,6.57-2.47,11.32-1.45,6.3-3.06,13.63-4.59,20.71-2.34,1.41-4.16,3.18-5.6,4.83-3.09,3.53-3.84,6.57-1.55,6.57h4.66c-.07.11-.18.45-.36.98h11.12c-1.18,3.41-5.53,14.73-23.41,24.7-13.8,7.69-33.72,8.07-39.35-4.13,2.17-.11,23.51-1.52,34.99-14.58,1.75-2,3.1-4,4.09-5.99h-11.12c4.71-9.39,1.49-18.3-4.1-23.3-7.34-6.58-24.11-6.82-36.11,1.76-8.36,5.99-14.27,12.89-17.4,21.54h11.12c-1.36,3.76-2.21,7.85-2.49,12.35-.15,2.23-.06,4.42.24,6.54.08.64-.17,1.27-.68,1.66-5.38,4.13-15.12,7.94-18.3,5.91-3.22-2.06-3.27-8.82.4-26.46h-11.11c.25-1.21.52-2.46.81-3.77,3.08-14.11,7.23-29.63,10.04-40.64h11.76c1.27-4.96,2.27-9.01,2.78-11.6.36-1.84.58-3.41.64-4.75h-21.54c-.65,2.85-1.23,7.11-2.4,12.93-.18.91-.42,2.07-.71,3.42h-11.76c-1.32,6.21-3.63,16.6-5.88,26.58-1.35-1.4-5.56-5.22-12.7-6.65-8.82-1.76-23.76.24-33.88,15.76-1.81,2.78-3.24,5.72-4.33,8.72h11.12c-4.99,13.76-2.61,28.89,4.92,36.78,8.66,9.08,23.62,9.22,32.3,4.15,6.08-3.56,7.89-8.75,10.02-7.35,3.18,2.09,6.25,8.45,19.98,7.17,10.83-1.01,18.51-6.85,21.73-9.79.41-.37,1.05-.27,1.35.19,3.96,5.95,10.17,10.19,18.04,11.31,14.82,2.12,25.06-1.17,34.82-5.05,9.77-3.89,18.47-13.06,18.29-10.24-.17,2.82-2.64,9.44-6.79,17.12-1.56,2.89-3.27,5.41-4.84,7.56h-10.39s-4.77,6.03-5.89,8.15c-1.11,2.12,6.24,3.03,9.53,3.03,1.43,0,2.76-.09,3.99-.26,12.53-1.66,15.72-10.92,15.72-10.92h11.19c2.39-3.65,4.57-8.35,6.37-14.36,3.3-10.98,8.32-35.92,8.72-37.49h-12v-.98h12.72c12.35,0,13.38.74,15.08-2.14,0,0,3.03-6.07,3.95-8.34,1.08-2.66,1.58-3.72-5.18-3.72Zm-157.86,19.85c-2.73,11.73-7.03,21.79-14.2,25.32-6.49,3.19-15.35.18-16.06-13.29-.35-6.59,1.35-12.23,3.98-16.7h-11.12c3.28-5.58,8-9.31,12.02-10.72,8.01-2.8,15.22-.07,17.57,1-.81,3.57-1.57,6.89-2.22,9.71h11.11c-.4,1.77-.77,3.35-1.08,4.67Zm50.11-4.67c2.68-6.73,7.19-12.31,10.98-14.95,7.06-4.94,14.18-4.2,14.45,2.68.13,3.34-1.25,7.83-5.55,12.27h11.12c-4.19,4.32-11.14,8.6-22.19,11.74-.06-4.08.86-8.08,2.31-11.74h-11.12Z"/>
  </g>
  <path class="cls-1" d="m125.9,15.01c-5.35-.17-9.57,1.66-11.57,2.73-.94.5-1.63,1.35-1.95,2.36-.15.49-.3,1.07-.44,1.69h21.54c.21-4.75-1.72-6.59-7.59-6.78Z"/>
  <path class="cls-1" d="m215.42,146.24c2.28.01,4.08-.14,4.93-.23.4-.04.69-.11.83-.2.07-.04.13-.09.19-.14h-9.18c-.09.4.73.56,3.23.57Z"/>
</svg>