<?xml version="1.0" encoding="UTF-8"?>
<svg id="Layer_1" data-name="Layer 1" xmlns="http://www.w3.org/2000/svg" viewBox="0 0 512.96 160.48">
  <defs>
    <style>
      .cls-1 {
        fill: #0284c7;
      }
    </style>
  </defs>
  <path class="cls-1" d="m128.96,103.05c-.12.01-.18.01-.18.01"/>
  <path class="cls-1" d="m283.95,15.15c-.48-2.56-4.06.69-32.03.69-25.5,0-27.88-.78-43.85-.78s-21.87.94-27.35,4.41c-6.12,3.89-7.77,8.5-6.18,8.77,1.59.26,7.03-1,15.06-1.71,8.03-.7,12.03.62,12.82,2.21.8,1.59,0,6.44-3.26,20.65-1.45,6.3-3.06,13.63-4.59,20.71-2.34,1.41-4.16,3.18-5.6,4.83-3.09,3.53-3.84,6.57-1.55,6.57h4.66c-.51.84-3.11,14.17-23.77,25.68-13.8,7.69-33.72,8.07-39.35-4.13,2.17-.11,23.51-1.52,34.99-14.58,10.07-11.43,6.77-23.23,0-29.29-7.34-6.58-24.11-6.82-36.11,1.76-12,8.59-18.95,19.06-19.89,33.89-.14,2.23-.05,4.42.24,6.54.09.64-.16,1.27-.67,1.66-5.38,4.13-15.13,7.94-18.3,5.91-3.44-2.21-3.26-9.76,1.21-30.24s11.18-43.88,12.82-52.24c1.65-8.35.59-11.29-6.94-11.53-5.35-.17-9.57,1.66-11.57,2.73-.94.5-1.63,1.35-1.95,2.36-.85,2.71-1.42,7.53-2.84,14.62-1.02,5.09-3.85,17.85-6.59,30-1.35-1.4-5.56-5.22-12.7-6.65-8.82-1.76-23.76.24-33.88,15.76-10.12,15.53-8.59,35.88.59,45.5,8.66,9.07,23.62,9.22,32.29,4.15,6.09-3.56,7.9-8.76,10.03-7.35,3.18,2.09,6.25,8.46,19.97,7.18,10.83-1.01,18.51-6.86,21.74-9.79.41-.37,1.04-.27,1.35.19,3.96,5.95,10.16,10.18,18.03,11.3,14.82,2.12,25.06-1.17,34.82-5.05,9.77-3.89,18.47-13.06,18.29-10.24-.17,2.82-2.64,9.44-6.79,17.12-4.15,7.67-9.35,12.7-10.06,15.35-.7,2.65,4.59,4.94,12.35,3.97,7.77-.97,17.56-6.7,23.39-26.12,3.3-10.98,6.23-23.59,8.98-36.23.28-1.31,1.43-2.24,2.77-2.24h8.81c12.35,0,13.38.74,15.08-2.14,0,0,3.03-6.07,3.95-8.34,1.08-2.66,1.58-3.72-5.18-3.72h-20.16c-.92,0-1.61-.85-1.42-1.75.73-3.49,1.46-6.92,2.17-10.25,4.88-22.77,3.82-23.77,8.35-24,4.53-.24,18.29,0,31.71,0s16.85-.36,20.64-4.94c3.8-4.59,5.86-9.19,5.47-11.21ZM68.21,87.15c-2.74,11.74-7.03,21.79-14.21,25.32-6.48,3.19-15.35.18-16.06-13.29-.78-14.81,8.76-24.88,16-27.41,8.01-2.8,15.22-.07,17.57,1-1.32,5.8-2.5,10.95-3.3,14.38Zm72.2-19.62c7.06-4.94,14.18-4.2,14.45,2.68.25,6.6-5.34,17.66-27.74,24.01-.17-11.56,7.45-22.6,13.29-26.69Z"/>
  <path class="cls-1" d="m482.83,110.59c-2.9-3.17-.94-12,1.18-18.24,2.12-6.24,5.29-19.76,1.18-26.94s-11.79-8.18-17.04-5.71-9.57,8.12-10.76,8.87-.4-2.69-2.43-6.31c-2.03-3.62-7.41-8.85-17.18-8.26-9.76.59-16.59,6.24-19.24,8.65-2.65,2.41-1.88.85-2.41-2.76-.53-3.62-6.95-6.97-15.09-4.76-9.56,2.59-7.9,8.59-9.44,23-.09.81-.21,1.75-.35,2.79-.38,2.78-1.64,5.39-3.66,7.35-2.58,2.51-5.4,4.2-7.11,4.36-2.96.26-5.21-.79-3.79-6.26s7.19-15.31,4.32-22.19c-2.87-6.88-11.87-7.76-18.62-4.63-6.75,3.13-8.62,7.41-9.85,7.12-.61-.15-.3-1.4-.24-6.06.06-4.41-3.33-8.09-10.03-6.79-6.85,1.32-10.15,9.71-13.42,23.03-.41,1.67-.82,3.43-1.24,5.25-.29,1.26-1.16,2.29-2.35,2.8-.92.39-1.98.67-3.64.86-5.35.61-10.5-.71-11.91-6.44-1.41-5.74-2.35-18.24-15.27-24.09-13.73-6.22-35.67-2.62-46.67,17.91-8.71,16.24-6.25,31.93,2.11,42.62,8.18,10.44,26.47,15.14,41.3,6.44,13.53-7.94,16.32-20.74,17.47-24.53,1.15-3.79,1.78-2.6,7.32-2,2.95.32,5.43.19,7.34-.07.7-.1,1.28.54,1.14,1.24-1.7,8.28-3.19,15.88-4.06,19.72-1.59,6.97,1.76,8.21,7.94,7.32,6.18-.88,9.38-4.09,9.38-4.09,2.65-2.24,2.94-4.71,5.65-16.18s4.12-17.63,8.57-23.99c4.46-6.35,14.74-8.82,16.76-5.78,1.4,2.1-.35,5.25-1.68,9.75-1.32,4.5-1.19,15.04,8.07,16.81,4.75.9,8.73,0,11.48-1.09.77-.31,1.57.35,1.42,1.16-1.5,8.26-2.87,15.32-2.87,15.32-.96,5,.88,7.88,6.88,8.06,6,.18,9.94-1.76,11.65-4.18s4.62-14.5,10.44-29.94c5.82-15.44,11.65-19.72,16.74-20.29,3.75-.42,7.41,2.65,6.47,9.82-.94,7.18-2.76,19.12-5.41,29.53-2.65,10.41-.12,12.65,2,14.34,2.12,1.69,11.35,2.96,14.09-3.93s6.44-24.18,11.26-35.59c4.82-11.41,10.98-13.9,15.25-12.85,4.22,1.03,3.75,7.62,2.38,14.56-.96,4.85-3.88,15.66-4.81,20.91-2.65,11.74,2.5,16.88,9.09,16.9,7.5.02,12.04-6.75,12-8.29-.04-1.54-6.71-.26-10.32-4.22Zm-198.84-1.47c-8.05,5-16.63,2.47-19.93-3-3.29-5.47-4.29-15.81.59-25.88,4.88-10.06,12.76-13.06,16.23-13.53,3.48-.47,4.95.12,5.42,2.23,0,0,.88,5.54,4.11,11.3,3.24,5.76,4.52,5.35,4.53,8.18.02,3.41-2.91,15.7-10.95,20.7Z"/>
</svg>