<?xml version="1.0" encoding="UTF-8"?>
<svg id="Layer_1" data-name="Layer 1" xmlns="http://www.w3.org/2000/svg" viewBox="0 0 512.96 160.48">
  <defs>
    <style>
      .cls-1 {
        fill: #0284c7;
      }
    </style>
  </defs>
  <path class="cls-1" d="m161.43,61.48h20.02c.16-.77.32-1.54.48-2.3h-7.06c-.87-.78-1.88-1.47-2.99-2.07h2.41c-2.4-1.29-5.31-2.14-8.48-2.52h-7.85c-3.27.37-6.6,1.2-9.81,2.52h-2.41c-1.45.58-2.87,1.27-4.24,2.07h20.43c-.16.76-.33,1.53-.5,2.3Z"/>
  <path class="cls-1" d="m168.73,54.59h7.85c-2.49-.3-5.15-.31-7.85,0Z"/>
  <path class="cls-1" d="m495.38,114.81c-.04-1.54-6.7-.26-10.32-4.22-1.02-1.12-1.44-2.92-1.46-5.08h-9.18c-.05.24-.09.48-.13.7-.81,3.61-.89,6.59-.41,9h21.44c.04-.16.06-.29.06-.4Z"/>
  <path class="cls-1" d="m484.56,93.51c-.36,1.45-.72,2.95-1.07,4.41h8.49c.36-1.52.79-3.01,1.24-4.41h3.49c.12-.39.24-.78.37-1.15.26-.76.53-1.62.8-2.56h-8.93c-.28,1.17-.59,2.42-.9,3.71h-3.49Z"/>
  <path class="cls-1" d="m427.77,54.59h4.89c-1.48-.22-3.12-.24-4.89,0Z"/>
  <path class="cls-1" d="m461.88,54c-1.49.09-2.91.3-4.26.59h11c-1.97-.5-4.21-.74-6.74-.59Z"/>
  <path class="cls-1" d="m478.81,59.18h8.38c-2.81-.96-5.8-.87-8.38,0Z"/>
  <path class="cls-1" d="m490.7,123.11c3.52,0,6.39-1.48,8.44-3.22h-15.83c1.8,2.18,4.45,3.21,7.39,3.22Z"/>
  <path class="cls-1" d="m345.01,105.51h-20.23c-.79,3.9-1.47,7.28-2,9.7h19.81c.66-2.06,1.33-5.03,2.42-9.7Z"/>
  <path class="cls-1" d="m337.61,123.86c5.45-.79,8.59-3.38,9.25-3.97h-17.57c.16,4,3.31,4.68,8.32,3.97Z"/>
  <path class="cls-1" d="m350.77,115.77c-.3,1.6-.32,2.97-.01,4.12h18.36c.06-.08.12-.16.18-.24.5-.7,1.1-2.24,1.85-4.44h-20.27c-.07.36-.11.56-.11.56Z"/>
  <path class="cls-1" d="m480.88,86.8h3.33c.42-1.11.85-2.18,1.28-3.21.13-.32.27-.63.4-.94h-4.84c.53-1.17,1.08-2.25,1.63-3.23h4.76c.6-1.06,1.21-2.01,1.82-2.85h-3.42c.61-.84,1.23-1.57,1.85-2.21h-10.16c1-1.04,2-1.84,2.99-2.43h-3.39c1.47-.88,2.9-1.31,4.23-1.39h-28.49c-.12-.78-.29-1.53-.5-2.24h7.06c-.17-.49-.26-1.41-.51-2.54h1.75c-.16-.71-.38-1.51-.73-2.34h-1.75c-.16-.38-.34-.76-.55-1.15-.14-.26-.3-.52-.48-.79h-8.99c-1.27-1.07-2.66-1.82-4.09-2.3h18.65c-.7-.72-1.52-1.42-2.47-2.07h2.29c-1.54-1.05-3.4-1.96-5.62-2.52h-11c-2.63.58-4.98,1.49-7.02,2.52h-2.29c-1.31.66-2.5,1.37-3.54,2.07h2.62c-.46.15-.9.33-1.32.53-1.03.49-2.03,1.1-2.98,1.77h-8.83c-.53.44-.98.84-1.35,1.17-.36.33-.66.58-.9.77h-1.13c-.11-.39-.13-1.05-.2-1.94h1.35c-.49-.74-1.11-1.53-1.87-2.3h7.46c-.26-.73-.76-1.43-1.46-2.07h2.55c-1.33-1.2-3.39-2.14-5.93-2.52h-4.89c-.85.11-1.73.28-2.63.53-1.89.51-3.34,1.16-4.47,1.99h-2.55c-.82.59-1.46,1.28-1.98,2.07h-15.75c-1.21.81-2.24,1.61-3.07,2.3h10.46c-.2.6-.35,1.25-.48,1.94h1.75c-.14.73-.26,1.5-.36,2.34h-1.75c-.1.8-.18,1.63-.26,2.54h-10.23c-.01-.87-.11-1.72-.3-2.54h.14c-.12-.55-.28-1.08-.49-1.6-.11-.26-.25-.5-.38-.74h-.72c-.37-.71-.78-1.37-1.29-1.94h.12c-.04-.47-.09-1-.18-1.59-.03-.24-.09-.47-.18-.71h5.21c-3.77-1.92-8.82-1.75-13.13,0h-11.83c-.12-.74-.34-1.44-.68-2.07h2.56c-.53-1.03-1.33-1.91-2.4-2.52-1.65-.98-3.93-1.35-6.84-.79-.83.16-1.61.42-2.34.79-1.18.58-2.24,1.43-3.21,2.52h-2.56c-.54.61-1.06,1.3-1.54,2.07h15.4c-.44.68-.78,1.45-1.06,2.3h2.25c-.98.66-1.8,1.32-2.5,1.94h.72c-1.05.92-1.82,1.75-2.42,2.34h-.14c-.64.63-1.09.98-1.47.89-.06-.01-.11-.04-.15-.08.29-.13.62-.41,1.04-.82h-.92c-.02-.5.02-1.25.06-2.34h-.92c.02-.55.04-1.19.06-1.94h-8.53c-.84-.97-1.86-1.73-3-2.3h-13.13c-.27.11-.54.23-.81.35-1.34.62-2.48,1.29-3.47,1.95h10.53c-.3.61-.59,1.26-.88,1.94h.92c-.31.74-.62,1.52-.92,2.34h-.33c-.3.82-.59,1.65-.87,2.54h-24.23c-.34-.85-.74-1.7-1.18-2.54h-.65c-.41-.79-.86-1.57-1.37-2.34h-.38c-.44-.66-.91-1.31-1.44-1.94h13.07c0-.28.02-.58.02-.89.01-.48-.03-.96-.11-1.41h-7.77c-.81-.73-1.71-1.43-2.7-2.07h3.28c-1.05-.69-2.2-1.33-3.46-1.9-.49-.22-.98-.43-1.49-.62h11.19c-7.01-2.71-15.84-2.99-24.22,0h-11.19c-1.89.67-3.75,1.51-5.56,2.52h-3.28c-1.12.62-2.21,1.31-3.28,2.07h31.47c-.46.7-.89,1.47-1.31,2.3h-31.79c-.66-.79-1.4-1.57-2.22-2.3h-39.46c.15-.69.3-1.38.44-2.07h3.01c.13-.61.26-1.21.39-1.81.05-.24.1-.48.15-.71h10.16c.24-1.11.46-2.17.67-3.17h4c.39-1.88.73-3.58,1.05-5.12h-5.41c2.82-14.06,2.64-14.81,6.48-15,4.53-.24,18.29,0,31.71,0s16.85-.36,20.64-4.94c.05-.06.1-.12.15-.18h5.76c2.4-2.94,4.09-5.88,4.87-8.11h-2.71c.43-1.21.58-2.22.45-2.92-.48-2.56-4.06.69-32.03.69-25.5,0-27.88-.78-43.85-.78-13.57,0-19.87.68-24.82,3.01h2.71c-.88.41-1.71.88-2.53,1.4-3.69,2.35-5.75,4.95-6.46,6.71h-5.76c-.47,1.16-.35,1.95.28,2.06,1.59.26,7.03-1,15.06-1.71,8.03-.7,12.03.62,12.82,2.21.74,1.47.11,5.72-2.56,17.56h5.41c-.22.98-.45,2.01-.7,3.09-.15.66-.31,1.34-.47,2.03h-4c-.23,1.03-.47,2.09-.72,3.17h-10.16c-.18.83-.37,1.67-.56,2.52h-3.01c-.15.69-.31,1.38-.46,2.07h18.75c-1,.7-1.98,1.47-2.93,2.3h37.13c-.7.61-1.39,1.26-2.06,1.94h.38c-.73.74-1.45,1.52-2.14,2.34h.65c-.68.81-1.35,1.65-1.99,2.54h-1.95c.08.2.15.41.2.64,0,0,.09.6.33,1.6h6.98c-.28.45-.56.92-.83,1.39h2.86c-.22.39-.44.79-.66,1.19-.22.41-.44.83-.64,1.24h-7.16c.41-.88.81-1.73,1.12-2.43h-2.94c.15-.35.29-.65.39-.91.07-.17.13-.33.2-.48h-13.98c1.25-.95,2.47-1.68,3.62-2.24h3.4c-.47-.7-2.01-1-5.63-1h-20.16c-.85,0-1.49-.72-1.44-1.54h.88c0-.07,0-.14.02-.21.15-.72.3-1.42.45-2.13h-.88c.14-.65.27-1.3.41-1.94h-20.02c-.14.64-.28,1.29-.42,1.94h.88c-.17.78-.34,1.56-.51,2.34h-.88c-.18.85-.37,1.7-.56,2.54h-24.36c-.24-.88-.57-1.72-.93-2.54h1c-.36-.81-.77-1.6-1.23-2.34h-1.03c-.41-.66-.84-1.3-1.32-1.89h-39.02c-.87.63-1.69,1.28-2.5,1.94h.95c-.92.75-1.8,1.51-2.65,2.29h-1c-.9.83-1.78,1.67-2.6,2.54h-2.31c.17.57.26,1.21.29,1.91.01.11.01.22.01.33h6.67c-.38.45-.75.92-1.1,1.39h3.63c-.61.79-1.18,1.6-1.72,2.43h9.64c-.48.72-.92,1.45-1.34,2.21h3.79c-.53.92-1.02,1.87-1.46,2.85h-5.18c-.49,1.05-.93,2.12-1.32,3.23h4.71c-.49,1.34-.9,2.72-1.24,4.15h-3.61c-.24.98-.44,1.98-.61,3h-9.57c-.21,1.21-.37,2.44-.47,3.71h-3.88c-.05.44-.08.88-.11,1.32-.07,1.04-.08,2.07-.04,3.09h29.85c-2.65,2.49-5.94,5.06-10.05,7.59h35.56c.62-2.49,1.23-5.03,1.84-7.59h-14.6c2.67-1.18,5.34-2.63,7.82-4.41h3.53c1.55-1.1,3.02-2.34,4.38-3.71h9.7c.42-.43.84-.87,1.24-1.33.49-.56.95-1.11,1.37-1.67h3.67c1.07-1.39,1.95-2.77,2.65-4.15h-4.92c.55-1.08,1-2.16,1.34-3.23h5.32c.33-.96.56-1.91.72-2.85h-4.15c.14-.75.22-1.49.26-2.21h-9.65c.05-.83.04-1.64-.03-2.43h-3.36c-.03-.47-.08-.94-.15-1.39h23.69c-.67.44-1.29.91-1.87,1.39h2.94c-.95.79-1.79,1.62-2.53,2.43h10.38c-.17.19-.34.38-.51.57-.49.56-.93,1.11-1.3,1.64h3.75c-.75,1.07-1.24,2.05-1.45,2.85h-5.61c-.35,1.27.02,2.08,1.2,2.08h4.66c-.07.12-.19.52-.42,1.15h5.98c-.32.93-.86,2.36-1.8,4.15h-2.68c-.47.91-1.05,1.92-1.76,3h-11.06c-.75,1.16-1.65,2.41-2.73,3.71h-4.12c-1.17,1.41-2.54,2.89-4.15,4.41h17.59c.31,2.64.9,5.18,1.74,7.59h19.41c-1.09-2.03-1.88-4.63-2.22-7.59h-9.17c.34-1.46.68-2.93,1.03-4.41h4.12c.27-1.23.55-2.47.83-3.71h11.06c.22-1,.44-2,.66-3h2.68c.23-1.02.45-2.04.67-3.06.09-.4.26-.77.49-1.09h-5.98c.52-.71,1.35-1.15,2.28-1.15h8.81c12.26,0,13.36.73,15.04-2.08h5.61s.03-.04.04-.06c0,0,.62-1.23,1.37-2.79h-3.75c.34-.7.71-1.46,1.07-2.21h6.67c-.38.74-.72,1.48-1.04,2.21h3.53c-.43.96-.82,1.91-1.16,2.85h-5.45c-.4,1.08-.75,2.16-1.05,3.23h5.81c-.4,1.39-.72,2.78-.95,4.15h-4.6c-.19,1.01-.33,2.01-.43,3h-9.41c-.12,1.25-.19,2.49-.19,3.71h-3.23c0,1.49.08,2.97.25,4.41h6.2c-1.07,2.61-2.54,5.31-4.49,7.59h-7.33c1.23,3.53,2.99,6.79,5.18,9.7h-36.94c.13.18.26.36.4.53,1.19,1.51,2.59,2.91,4.16,4.15h40.59c1.97-1.48,3.66-3.06,5.11-4.68h21.29c-.1.48-.2.92-.29,1.32-.3,1.32-.42,2.43-.38,3.36h-22c9.25,7.37,24.46,9.73,37.14,2.29,1.24-.73,2.38-1.49,3.45-2.29h-1.02c.09-.08.13-.12.13-.12,1.32-1.11,2.04-2.28,2.78-4.56h-4.16c2.94-3.28,4.89-6.7,6.22-9.7h.83c.14-.61.29-1.25.45-1.92.48-2.05.92-3.93,1.35-5.67h6.96c.03-.1.05-.19.08-.27,1.15-3.79,1.78-2.6,7.32-2,2.95.32,5.44.19,7.34-.07.7-.1,1.28.54,1.14,1.23-.08.37-.15.74-.23,1.11h2.09c1.26,1.17,2.92,2.06,5.07,2.47,4.75.9,8.73,0,11.48-1.1.77-.3,1.57.35,1.42,1.16-.32,1.76-.63,3.46-.93,5.06h21.56c.75-2.33,1.59-4.87,2.52-7.59h-22.72c.38-1.58.76-3.04,1.14-4.41h3.8c.35-1.31.72-2.54,1.1-3.71h9.57c.34-1.04.7-2.04,1.1-3h3.48c.57-1.45,1.22-2.81,1.97-4.15h-5.48c.57-1.02,1.2-2.03,1.91-3.04.04-.06.09-.13.15-.19h5.53c.76-1.07,1.7-2.02,2.74-2.85h-4.12c1.08-.87,2.26-1.61,3.46-2.21h-9.29c4.39-2.17,9.11-2.49,10.42-.53.11.17.2.34.27.53h9.62c.27.64.29,1.38.17,2.21h4.24c-.13.84-.41,1.79-.76,2.85h-5.83c-.32.98-.7,2.06-1.07,3.23h5.39c-.1.3-.2.61-.29.93-.26.88-.46,1.99-.55,3.22h-3.88c-.07.94-.07,1.96.02,3h9.29c-2.04,1.65-4.04,2.7-5.37,2.82-2.19.2-3.99-.33-4.2-2.82h-9.79c.11,1.24.35,2.5.76,3.71h-2.78c.56,1.64,1.45,3.19,2.77,4.41h20.39c-.49,2.52-1.03,5.08-1.61,7.59h-8.92c-.85,4.64-1.57,8.34-1.83,9.7h8.85c-.13,2.07.11,3.56.54,4.68h-2.91c.65,2.44,2.8,3.82,6.89,3.94,5.8.16,9.68-1.64,11.47-3.94h.87c.12-.23.23-.46.33-.71.43-1.08.88-2.43,1.36-3.97h-7.13c.84-2.47,1.86-5.77,3.12-9.7h6.83c.68-2.45,1.4-5.01,2.17-7.59h.7c.49-1.42,1-2.9,1.55-4.41h2.78c.44-1.21.89-2.45,1.37-3.71h10.61s.02-.06.03-.09c.38-1.02.77-1.99,1.15-2.91h3.86c.63-1.51,1.25-2.89,1.88-4.15h-5.6c.57-1.17,1.15-2.25,1.73-3.23h5.39c.6-1.05,1.21-2,1.82-2.85h-3.72c.58-.82,1.16-1.55,1.74-2.21h-10.2c.85-.98,1.7-1.78,2.54-2.43h-2.29c.73-.57,1.45-1.03,2.16-1.39h.7c.37-.02.73-.02,1.08,0h4.84c.47.36.9.83,1.26,1.39h3.39c.45.67.79,1.48,1.02,2.43h10.16c.15.67.25,1.4.27,2.21h3.42c.04.82,0,1.71-.13,2.67-.01.06-.02.12-.02.18h-4.76c-.13.99-.28,2.07-.45,3.23h4.84c-.18,1.3-.38,2.69-.61,4.15h-3.33c-.15.97-.31,1.98-.48,3h-9.79c-.2,1.21-.41,2.45-.64,3.71h-3.48c-.25,1.44-.52,2.92-.81,4.41h-4.11c-.69,2.83-1.32,5.54-1.71,7.59h-2.92c-.25,1.1-.52,2.19-.79,3.26-.67,2.63-1.01,4.73-1.1,6.44h4.03c.38,1.92,1.11,3.48,2.11,4.68h1.11c.61,1.62,1.62,2.47,2.56,3.22,2.03,1.63,10.69,2.86,13.76-3.22h-1.6c2.01-1.7,3.23-3.65,3.5-4.68h-6.92c.86-2.73,1.79-6.09,2.81-9.7h-7.37c-.03-2.29.4-4.96,1.02-7.59h15.65c.44-1.48.89-2.95,1.35-4.41h3.48c.4-1.25.8-2.5,1.22-3.71h9.79c.35-1.02.71-2.03,1.07-3Zm-344.47,7.42c0-.24,0-.47.01-.71h2.36c-.77.24-1.56.48-2.37.71Zm43.65-17.65c-.44.93-.98,1.88-1.64,2.85h-5.32c-.74,1.07-1.63,2.15-2.69,3.23h4.92c-1.38,1.4-3.06,2.8-5.07,4.15h-3.67c-1.54,1.03-3.27,2.04-5.22,3h-9.7c-2.69,1.33-5.8,2.58-9.37,3.71h-2.01c.01-1.25.11-2.49.29-3.71h9.57c.15-1.01.36-2.01.6-3h3.61c.36-1.42.81-2.81,1.34-4.15h-4.71c.43-1.11.92-2.19,1.44-3.23h5.18c.5-.99,1.03-1.94,1.59-2.85h-3.79c.47-.77.96-1.51,1.46-2.21h-9.64c.61-.86,1.25-1.68,1.89-2.43h-3.63c.41-.49.83-.95,1.24-1.39h-11.11c-.11-.77-.27-1.51-.48-2.24h7.37c.34-.28.68-.54,1.01-.77,1.02-.72,2.04-1.3,3.04-1.77h1c3.9-1.85,7.5-1.88,9.58,0h-1c.7.63,1.24,1.47,1.54,2.54h2.73c-.13.6-.26,1.2-.39,1.8-.24.14-.47.29-.69.44h4.96c0,.45-.02.91-.07,1.39h3.36c-.09.77-.25,1.59-.5,2.43h9.65c-.21.72-.48,1.45-.82,2.21h4.15Zm34.74-6.03h-6.78c.39-.99.62-1.73.25-2.24h8.04c-.52.72-1.02,1.47-1.51,2.24Zm102.58,16.26c.17.44.25.94.25,1.62,0,.36-.03.83-.1,1.38h-9.57c-.12,1-.37,2.28-.76,3.71h-3.8c-.36,1.37-.86,2.87-1.49,4.41h-11.47c-.54,2.65-1.06,5.22-1.54,7.59h1.54c-1.19,1.4-2.55,2.64-4.11,3.61-8.05,5-16.63,2.47-19.93-3-.12-.2-.23-.4-.35-.61h5.78c1.44-3.26,2.16-6.03,2.61-7.59h-3.25c-.17-1.39-.24-2.87-.18-4.41h3.23c.04-1.2.15-2.44.35-3.71h9.41c.15-.99.35-1.99.6-3h4.6c.35-1.37.79-2.76,1.34-4.15h-5.81c.31-.8.66-1.61,1.05-2.41.14-.28.27-.55.42-.82h5.45c.53-1.03,1.09-1.98,1.69-2.85h-3.53c.53-.8,1.08-1.53,1.66-2.21h-9.89c.74-.91,1.52-1.72,2.3-2.43h-2.86c.56-.51,1.11-.97,1.66-1.39h-9.11c-.24-.74-.51-1.49-.81-2.24h6.47c1.95-.96,3.68-1.42,4.88-1.59,3.1-.42,4.6,0,5.22,1.59h7.5c-.23.72-.46,1.47-.68,2.24h.11c.1.4.22.87.37,1.39h2.97c.2.72.46,1.54.77,2.43h9.73c.25.7.53,1.44.86,2.21h3.88c.38.92.83,1.88,1.34,2.85h-5.06c.14.27.29.55.44.82.54.96,1.03,1.75,1.46,2.41h5.01c1.54,2.34,2.43,3.08,2.82,4.15h-3.48Zm37.69-9.97c-.21.84-.41,1.71-.63,2.59h-5.53c-.2.87-.4,1.76-.61,2.66-.04.2-.1.39-.18.57h5.48c-.38,1-1.17,1.8-2.17,2.23-.92.39-1.98.67-3.64.86-4.09.47-8.06-.19-10.33-3.09h-5.01c-.68-.86-1.21-1.93-1.54-3.23h5.06s-.03-.08-.04-.12c-.2-.79-.38-1.71-.59-2.73h-3.88c-.15-.7-.3-1.43-.48-2.21h-9.73c-.17-.78-.38-1.59-.61-2.43h-2.97c-.13-.46-.27-.92-.41-1.39h22.53c-.14.45-.27.92-.4,1.39h3.54c-.22.79-.43,1.6-.65,2.43h9.29c-.19.72-.37,1.46-.55,2.21h4.12c-.03.08-.05.17-.07.26Zm3.16-6.29h-10.94c.09-.76.14-1.51.13-2.24h10.98c-.15.64-.23,1.38-.17,2.24Zm59.9,7.58c-.04.4-.09.84-.15,1.3h-5.39c-.06.47-.12.97-.2,1.49-.08.59-.2,1.17-.36,1.74h5.6c-.41,1.5-1.09,2.91-2.01,4.15h-3.86c-.38.52-.81,1.01-1.28,1.46-.57.56-1.16,1.08-1.74,1.54h-10.11c-.08-.79,0-1.78.3-3h3.88c.02-.14.06-.29.1-.44.28-1.08.73-2.34,1.25-3.71h-5.39c.39-1.02.82-2.11,1.24-3.23h5.83c.35-.93.7-1.88,1.02-2.85h-4.24c.25-.73.48-1.47.68-2.21h-9.62c.22-.81.42-1.62.57-2.43h-3.54c.09-.46.16-.93.22-1.39h2.17c1.27-.65,2.52-.99,3.72-1.13,1.45-.16,2.89.2,4.05,1.13h1.72c-.04.45-.08.91-.12,1.39h2.29c-.05.78-.11,1.59-.19,2.43h10.2c-.05.71-.12,1.45-.19,2.21h3.72c-.05.51-.1,1.02-.16,1.55Zm5.22-9.54c-.34.21-.51.09-.63-.28h.99c-.14.12-.26.22-.36.28Z"/>
  <path class="cls-1" d="m213.12,119.97s.02-.05.02-.08h-22.29c-.8,1.79-1.74,3.71-2.8,5.72h3.09c-.2.39-.4.77-.61,1.16-4.15,7.67-9.35,12.7-10.06,15.35-.05.18-.06.36-.06.53h-3.88c.04,1.1,1.14,2.1,3,2.78h12.57c1.93-.56,3.92-1.45,5.91-2.78h3.88c4.47-3,8.88-8.24,12.37-17.05h-3.09c.69-1.74,1.34-3.61,1.95-5.64Z"/>
  <path class="cls-1" d="m145.34,146.09c1.02-.13,2.08-.34,3.16-.66h-12.57c2.2.8,5.48,1.15,9.41.66Z"/>
  <path class="cls-1" d="m484.86,61.48h-16.77c-.86.61-1.68,1.27-2.44,1.94h.61c-.92.8-1.74,1.6-2.47,2.34h-.61c-1.1,1.11-1.97,2.05-2.52,2.54h28.64c-.25-.91-.61-1.75-1.02-2.54h.61c-.06-.11-.11-.24-.17-.35-.42-.73-.88-1.39-1.37-1.99h-.61c-.59-.73-1.22-1.39-1.88-1.94Z"/>
  <path class="cls-1" d="m497.88,82.65h5.11v-3.23h-4.7c-.09,1.03-.23,2.12-.41,3.23Z"/>
  <path class="cls-1" d="m499.37,74.36c0-.82-.05-1.64-.13-2.43h-2.65c-.04-.47-.1-.94-.17-1.39h-13.63c.43.03.85.1,1.25.2.82.2,1.46.61,1.94,1.19h2.65c.54.63.9,1.45,1.12,2.43h9.55c.16.67.24,1.41.27,2.21h3.42v-2.21h-3.62Z"/>
  <path class="cls-1" d="m498.13,89.8h4.86v-3h-4.17c-.2.9-.44,1.91-.69,3Z"/>
  <path class="cls-1" d="m28.93,59.18H9.98v2.3h23.58c-1.27-.81-2.81-1.62-4.63-2.3Z"/>
  <path class="cls-1" d="m168.97,115.21h7.69c5.73-3.78,9.79-7.5,9.67-5.56-.07,1.22-.57,3.14-1.45,5.56h21.72c.88-3.14,1.74-6.38,2.57-9.7h-35.56c-.91.56-1.87,1.12-2.86,1.67-12.8,7.13-30.86,7.98-37.9-1.67h-26.69c-5.33,2.98-11.98,5.05-14.5,3.43-.99-.63-1.68-1.72-2.05-3.43h5.79c-.56-.75-1.04-1.57-1.45-2.46,1.46-.07,11.58-.74,21.55-5.13h-18.98c.13-1.33.31-2.79.56-4.41h3.17c.16-1.16.36-2.39.6-3.71h9.51c.17-.95.35-1.95.55-3h4.01c.25-1.31.53-2.69.83-4.15h-6.06c.22-1.04.44-2.11.69-3.23h5.95c.05-.23.1-.47.15-.71.16-.71.31-1.42.48-2.14h-2.99c.16-.73.32-1.47.49-2.21h-11.27c.19-.81.38-1.62.57-2.43h-2.1c.1-.46.21-.93.32-1.39h1.19c.81-.85,1.63-1.61,2.42-2.24h-9.71c.21-.85.42-1.69.62-2.54h1.94c.19-.78.38-1.56.57-2.34h-2.36c.16-.65.32-1.3.47-1.94h35.44c-.67-.84-1.4-1.61-2.17-2.3h-26.14c.18-.69.35-1.38.53-2.07h3.58c.21-.85.42-1.69.63-2.52h9.92c.27-1.07.54-2.13.81-3.17h3.68c.45-1.75.89-3.46,1.32-5.12h-5.08c2.24-8.68,4.13-15.91,4.9-19.83.02-.1.04-.19.06-.29h5.32c.71-3.72.87-6.34.11-8.11h-2.51c-.9-2.1-3.07-3-7.11-3.13-5.35-.16-9.57,1.66-11.57,2.73-.22.12-.42.25-.61.4h2.51c-.63.5-1.09,1.18-1.34,1.96-.45,1.44-.83,3.48-1.28,6.15h-5.32c-.41,2.34-.89,5.16-1.55,8.47-.49,2.43-1.39,6.62-2.49,11.65h5.08c-.37,1.63-.75,3.34-1.14,5.12h-3.68c-.23,1.04-.47,2.1-.7,3.17h-9.92c-.19.83-.38,1.67-.58,2.52h-3.58c-.15.69-.3,1.38-.45,2.07h13.23c-.94.54-1.85,1.12-2.74,1.76-.25.18-.5.36-.74.54h-16.84c-.14.65-.29,1.29-.43,1.94-.68-.58-1.56-1.25-2.64-1.94h-12.88c.19-.77.38-1.54.57-2.3h13.8c-1.24-.47-2.62-.88-4.12-1.18-4.26-.85-9.94-.82-15.82,1.18h-14.32c-.18.76-.35,1.53-.53,2.3h3.54c-1.03.57-2.06,1.22-3.08,1.94h.76c-.99.7-1.98,1.48-2.94,2.34h-1.94c-.84.75-1.67,1.55-2.48,2.42l-24.21-.06v2.24l28.69.32c-.32.41-.64.82-.94,1.25h3.48c-.43.59-.86,1.2-1.27,1.84-.13.19-.25.39-.37.59h9.71c-.46.72-.89,1.46-1.3,2.21h3.7c-.51.94-.99,1.89-1.42,2.85h-5.29c-.48,1.07-.91,2.14-1.3,3.23h4.94c-.49,1.37-.91,2.76-1.26,4.15h-3.99c-.25,1-.46,2-.64,3h-9.78c-.22,1.24-.38,2.48-.49,3.71h-2.71c-.14,1.48-.2,2.96-.17,4.41h.46c-1.08,2.82-2.31,5.38-3.74,7.59h-3.22c.74,3.58,1.98,6.88,3.68,9.7H9.98v4.68h20.19c2.69-2.61,4.01-4.8,5.48-3.83,1.28.84,2.54,2.38,4.49,3.83h-2.75c2.11,2.05,4.57,3.59,7.19,4.7h3.09c7.25,3.06,15.78,2.72,22.1,0h-3.09c.83-.36,1.63-.74,2.38-1.18,1.88-1.09,3.35-2.35,4.55-3.52h-5.89c3.13-1.49,5.67-3.21,7.56-4.68h4.55c1.35,1.76,2.93,3.33,4.7,4.68h-1.18c2.89,2.15,7.29,4.11,15.48,3.35,4.64-.44,8.7-1.76,12.09-3.35h16.6c3.39,2.6,7.49,4.38,12.19,5.05,14.82,2.12,25.06-1.17,34.82-5.05h-6.91c.46-1.53.91-3.09,1.36-4.68Zm-110.74-46.91h27.23c-.69.73-1.35,1.48-1.98,2.24h-25.78c.15-.61.37-1.6.53-2.24Zm21.97,21.5c-.33,1.27-.68,2.51-1.05,3.71h-3.17c-.47,1.53-.97,3-1.52,4.41h-1.57c.03,1.16.13,2.32.28,3.45.09.64-.16,1.27-.67,1.66-1.11.86-2.41,1.7-3.8,2.48h-5.01c-2.02,3.14-4.41,5.57-7.25,6.96-5.3,2.61-12.21,1.07-14.93-6.96h10.69c-.4-1.78-.44-4.24-.12-7.59h-4.41c-.03-1.53.06-3,.25-4.41h2.71c.16-1.29.41-2.52.72-3.71h9.78c.27-1.04.59-2.04.97-3h3.99c.55-1.48,1.22-2.87,1.97-4.15h-4.94c.67-1.16,1.4-2.24,2.18-3.23h5.29c.8-1.04,1.66-1.99,2.55-2.85h-3.7c.85-.83,1.72-1.56,2.61-2.21h-9.71c1.47-1.08,2.95-1.89,4.36-2.43h14.49c.9.31,1.61.61,2.11.84-.12.54-.24,1.07-.37,1.59h11.27c-.16.75-.33,1.49-.5,2.21h2.99c-.22.98-.44,1.94-.65,2.85h-5.95c-.26,1.14-.51,2.22-.75,3.23h6.06c-.35,1.55-.67,2.95-.95,4.15h-4.01c-.03.12-.05.24-.08.35-.21.89-.43,1.78-.65,2.65h-9.51Zm65.12,30.09h-13.8c3.06-1.22,6.01-2.96,8.62-4.68h7.11c-.52,1.41-1.17,2.98-1.93,4.68Z"/>
</svg>
